<svg version="1.1" xmlns="http://www.w3.org/2000/svg">
  <defs>
    <symbol id="filters" viewBox="0 0 16 18">
      <path fill-rule="nonzero" d="M10 9v7.88c.04.3-.06.62-.29.83a.996.996 0 0 1-1.41 0L6.29 15.7a.989.989 0 0 1-.29-.83V9h-.03L.21 1.62A1 1 0 0 1 .38.22C.57.08.78 0 1 0h14c.22 0 .43.08.62.22a1 1 0 0 1 .17 1.4L10.03 9H10z"/>
    </symbol>

     <symbol id="access-key" viewBox="0 0 16 18">
      <path fill-rule="nonzero" d="M3.5 8.512c-1.747.615-3 2.28-3 4.238 0 2.482 2.017 4.5 4.5 4.5 2.482 0 4.5-2.017 4.5-4.5a4.493 4.493 0 0 0-3-4.238V5.25h3v-3h-3V.75h-3v7.762zm3 4.238c0 .825-.675 1.5-1.5 1.5s-1.5-.675-1.5-1.5.675-1.5 1.5-1.5 1.5.675 1.5 1.5z"/>
    </symbol>
  </defs>
</svg>
